# AST/ASF file generated using VICON BodyLanguage
# -----------------------------------------------
:version 1.10
:name VICON
:units
  mass 1.0
  length 0.45
  angle deg
:documentation
   .ast/.asf automatically generated from VICON data using
   VICON BodyBuilder and BodyLanguage model FoxedUp or BRILLIANT.MOD
:root
   order TX TY TZ RX RY RZ
   axis XYZ
   position 0 0 0  
   orientation 0 0 0 
:bonedata
  begin
     id 1 
     name lhipjoint
     direction 0.440178 -0.822639 0.359871 
     length 2.53113 
     axis 0 0 0  XYZ
  end
  begin
     id 2 
     name lfemur
     direction 0.34202 -0.939693 0  
     length 7.88132  
     axis 0 0 20  XYZ
    dof rx ry rz
    limits (-160.0 20.0)
           (-70.0 70.0)
           (-60.0 70.0)
  end
  begin
     id 3 
     name ltibia
     direction 0.34202 -0.939693 0   
     length 8.43783   
     axis 0 0 20   XYZ
    dof rx
    limits (-10.0 170.0)
  end
  begin
     id 4 
     name lfoot
     direction 0.0886351 -0.243523 0.965837   
     length 2.63414   
     axis -90 7.62852e-016 20   XYZ
    dof rx rz
    limits (-45.0 90.0)
           (-70.0 20.0)
  end
  begin
     id 5 
     name ltoes
     direction 1.53703e-011 -4.21717e-011 1   
     length 1.31427   
     axis -90 7.62852e-016 20   XYZ
    dof rx
    limits (-90.0 20.0)
  end
  begin
     id 6 
     name rhipjoint
     direction -0.399779 -0.839773 0.367367   
     length 2.47948  
     axis 0 0 0  XYZ 
  end
  begin
     id 7 
     name rfemur
     direction -0.34202 -0.939693 0   
     length 7.74806   
     axis 0 0 -20   XYZ
    dof rx ry rz
    limits (-160.0 20.0)
           (-70.0 70.0)
           (-70.0 60.0)
  end
  begin
     id 8 
     name rtibia
     direction -0.34202 -0.939693 0   
     length 8.74432   
     axis 0 0 -20   XYZ
    dof rx
    limits (-10.0 170.0)
 end
 begin
     id 9 
     name rfoot
     direction -0.108514 -0.298139 0.948334   
     length 2.66102  
     axis -90 -7.62852e-016 -20   XYZ
    dof rx rz
    limits (-45.0 90.0)
           (-20.0 70.0)
  end
  begin
     id 10 
     name rtoes
     direction -1.53392e-011 -4.22077e-011 1   
     length 1.31983   
     axis -90 -7.62852e-016 -20   XYZ
    dof rx
    limits (-90.0 20.0)
  end
  begin
     id 11 
     name lowerback
     direction 0.0113257 0.999866 0.0118602   
     length 2.58694   
     axis 0 0 0   XYZ
    dof rx ry rz
    limits (-20.0 45.0)
           (-30.0 30.0)
           (-30.0 30.0)
  end
  begin
     id 12 
     name upperback
     direction -0.0164747 0.995193 -0.0965375   
     length 2.52368   
     axis 0 0 0   XYZ
    dof rx ry rz
    limits (-20.0 45.0)
           (-30.0 30.0)
           (-30.0 30.0)
  end
  begin
     id 13 
     name thorax
     direction -0.0194301 0.99433 -0.104552   
     length 2.56099   
     axis 0 0 0   XYZ
    dof rx ry rz
    limits (-20.0 45.0)
           (-30.0 30.0)
           (-30.0 30.0)
  end
  begin
     id 14 
     name lowerneck
     direction 0.0148543 0.995587 -0.092657   
     length 1.71582   
     axis 0 0 0   XYZ
    dof rx ry rz
    limits (-20.0 45.0)
           (-30.0 30.0)
           (-30.0 30.0)
  end
  begin
     id 15 
     name upperneck
     direction -0.0135467 0.993656 -0.111639   
     length 1.68937   
     axis 0 0 0   XYZ
    dof rx ry rz
    limits (-20.0 45.0)
           (-30.0 30.0)
           (-30.0 30.0)
  end
  begin
     id 16
     name head
     direction -0.00615349 0.999547 -0.029448  
     length 1.7462  
     axis 0 0 0   XYZ
    dof rx ry rz
    limits (-20.0 45.0)
           (-30.0 30.0)
           (-30.0 30.0)
  end
  begin
     id 17 
     name lclavicle
     direction 0.988267 0.149885 0.0293713  
     length 4.47222  
     axis 0 0 0   XYZ
    dof ry rz
    limits (-20.0 10.0)
           (0.0 20.0)
  end
  begin
     id 18 
     name lhumerus
     direction 1 -4.48986e-011 -1.14833e-027   
     length 5.37148   
     axis 180 -30 -90   XYZ
    dof rx ry rz
    limits (-60.0 90.0)
           (-90.0 90.0)
           (-90.0 90.0)
  end
  begin
     id 19
     name lradius
     direction 0.999998 0.00170963 -0.000987055   
     length 3.94212   
     axis 180 -30 -90   XYZ
    dof rx
    limits (-10.0 170.0)
  end
  begin
     id 20
     name lwrist
     direction 0.999998 7.53149e-005 -0.00194706   
     length 1.97106   
     axis 4.65056e-015 90 90   XYZ
    dof ry
    limits (-180.0 0.0)
 end
  begin
     id 21 
     name lhand
     direction 1 -4.48973e-011 -1.31746e-026   
     length 1.17917   
     axis 8.4065e-015 90 90   XYZ
    dof rx rz
    limits (-90.0 90.0)
           (-45.0 45.0)
  end
  begin
     id 22 
     name lfingers
     direction 1 -4.49107e-011 -2.63492e-026   
     length 0.950679   
     axis 1.6813e-014 90 90   XYZ
    dof rx
    limits (0.0 90.0)
  end
  begin
     id 23
     name lthumb
     direction 0.707107 -6.35048e-011 0.707107   
     length 1.36499   
     axis -90 45 2.85299e-015   XYZ
    dof rx rz
    limits (-45.0 45.0)
           (-45.0 45.0)
  end
  begin
     id 24 
     name rclavicle
     direction -0.996699 0.0642895 -0.0495725   
     length 4.62611  
     axis 0 0 0   XYZ 
    dof ry rz
    limits (-10.0 20.0)
           (-20.0 0.0)
  end
  begin
     id 25 
     name rhumerus
     direction -1 -4.48919e-011 -2.41059e-027  
     length 5.4981   
     axis 180 30 90   XYZ
    dof rx ry rz
    limits (-90.0 60.0)
           (-90.0 90.0)
           (-90.0 90.0)
  end
  begin
     id 26 
     name rradius
     direction -0.999999 0.00118101 -0.000681858   
     length 3.48381   
     axis 180 30 90   XYZ
    dof rx
    limits (-10.0 170.0)
  end
  begin
     id 27 
     name rwrist
     direction -0.999999 0.000321823 -0.00132288   
     length 1.7419   
     axis 4.65056e-015 -90 -90   XYZ
    dof ry
    limits (-180.0 0.0)
  end
  begin
     id 28
     name rhand
     direction -1 -4.49022e-011 -1.31746e-026   
     length 1.34932   
     axis 8.4065e-015 -90 -90   XYZ
    dof rx rz
    limits (-90.0 90.0)
           (-45.0 45.0)
  end
  begin
     id 29
     name rfingers
     direction -1 -4.49178e-011 -2.63492e-026   
     length 1.08785   
     axis 1.6813e-014 -90 -90   XYZ
    dof rx
    limits (0.0 90.0)
  end
  begin
     id 30
     name rthumb
     direction -0.707107 -6.34713e-011 0.707107   
     length 1.56195   
     axis -90 -45 -2.85299e-015   XYZ
    dof rx rz
    limits (-45.0 45.0)
           (-45.0 45.0)
  end
:hierarchy
  begin
    root lhipjoint rhipjoint lowerback
    lhipjoint lfemur
    lfemur ltibia
    ltibia lfoot
    lfoot ltoes
    rhipjoint rfemur
    rfemur rtibia
    rtibia rfoot
    rfoot rtoes
    lowerback upperback
    upperback thorax
    thorax lowerneck lclavicle rclavicle
    lowerneck upperneck
    upperneck head
    lclavicle lhumerus
    lhumerus lradius
    lradius lwrist
    lwrist lhand lthumb
    lhand lfingers
    rclavicle rhumerus
    rhumerus rradius
    rradius rwrist
    rwrist rhand rthumb
    rhand rfingers
  end

#!OML:ASF X:\für Bonn\!DataBase\2005_08_10_Bjorn_Final\c3d\bjorn.ASF
:FULLY-SPECIFIED
:DEGREES
18
root 4.58121 20.538 -11.784 7.7971 -1.076 363.005
lowerback -9.58397 0.827615 1.45506
upperback 3.24743 0.915365 0.0244549
thorax 8.86598 0.524276 -0.636897
lowerneck -1.57209 -1.84477 -0.699333
upperneck -16.0839 -2.5851 -0.379194
head -5.08984 -1.21533 0.0938549
rclavicle 1.09332e-014 2.38542e-015
rhumerus -45.583 -5.14434 -91.4226
rradius 109.836
rwrist -1.2031
rhand -22.5232 29.3376
rfingers 7.12502
rthumb 3.90351 -0.606406
lclavicle 1.09332e-014 2.38542e-015
lhumerus -41.2663 -12.5763 92.4884
lradius 98.4132
lwrist -7.06111
lhand -39.1967 -25.2784
lfingers 7.12502
lthumb -12.1933 4.34619
rfemur -6.80474 -1.52633 9.08493
rtibia 29.922
rfoot 7.80271 8.17054
rtoes -28.4714
lfemur -14.2234 -0.593799 -16.2684
ltibia 32.0362
lfoot 10.934 -13.6838
ltoes -28.0726
19
root 4.58489 20.8376 -11.6099 8.32327 -0.904498 362.902
lowerback -10.6018 0.837401 1.46568
upperback 2.82749 0.906456 0.0917903
thorax 9.00215 0.516205 -0.5634
lowerneck -1.01972 -1.86842 -0.694663
upperneck -15.6401 -2.62373 -0.425715
head -5.03255 -1.23302 0.082197
rclavicle -3.97569e-016 -6.36111e-015
rhumerus -45.7552 -4.27492 -91.4069
rradius 111.96
rwrist -0.564623
rhand -22.787 30.8353
rfingers 7.12502
rthumb 3.64877 0.886787
lclavicle -3.97569e-016 -6.36111e-015
lhumerus -41.073 -13.919 92.2356
lradius 100.616
lwrist -6.58644
lhand -39.3399 -26.126
lfingers 7.12502
lthumb -12.3314 3.4904
rfemur -6.94552 -2.43528 9.09436
rtibia 28.852
rfoot 12.2731 6.55809
rtoes -27.004
lfemur -14.4415 0.351297 -16.128
ltibia 31.1052
lfoot 15.0181 -13.7406
ltoes -29.9463
20
root 4.58766 21.1405 -11.4382 8.99929 -0.734144 362.815
lowerback -11.7248 0.848727 1.4539
upperback 2.42477 0.900563 0.155883
thorax 9.21567 0.508866 -0.478487
lowerneck -0.633119 -1.90579 -0.695077
upperneck -15.2294 -2.68059 -0.480675
head -4.95558 -1.2594 0.067646
rclavicle 1.39149e-015 7.15625e-015
rhumerus -45.7431 -3.3755 -91.3905
rradius 114.001
rwrist 0.0150367
rhand -22.9553 31.3677
rfingers 7.12502
rthumb 3.48631 1.41646
lclavicle 1.39149e-015 7.15625e-015
lhumerus -40.7054 -15.2321 91.8528
lradius 102.319
lwrist -6.60804
lhand -39.9717 -27.3623
lfingers 7.12502
lthumb -12.9405 2.21645
rfemur -7.41571 -3.30921 9.1347
rtibia 28.0972
rfoot 16.0395 4.68652
rtoes -25.3079
lfemur -14.9948 1.21866 -16.0519
ltibia 30.4775
lfoot 18.5567 -13.5504
ltoes -31.9132
21
root 4.59048 21.4421 -11.2722 9.6269 -0.541944 362.73
lowerback -12.7669 0.850239 1.46213
upperback 2.13718 0.879207 0.213212
thorax 9.50554 0.496304 -0.415017
lowerneck -0.437869 -1.9531 -0.700422
upperneck -14.919 -2.74543 -0.500324
head -4.87807 -1.2913 0.0647541
rclavicle 7.7526e-015 8.74653e-015
rhumerus -45.4981 -2.47868 -91.3701
rradius 115.874
rwrist 0.496052
rhand -22.9974 30.5869
rfingers 7.12502
rthumb 3.44557 0.635002
lclavicle 7.7526e-015 8.74653e-015
lhumerus -40.0633 -16.4143 91.2897
lradius 103.442
lwrist -7.46061
lhand -40.8778 -28.1811
lfingers 7.12502
lthumb -13.8138 1.34025
rfemur -7.97185 -4.00837 9.23564
rtibia 27.6569
rfoot 18.8063 2.83979
rtoes -24.0353
lfemur -15.5946 1.84797 -16.0046
ltibia 30.0544
lfoot 21.513 -12.6401
ltoes -31.7027
